<svg width="30" height="30" viewBox="0 0 30 30" fill="none" xmlns="http://www.w3.org/2000/svg">
<rect x="0.5" y="0.5" width="29" height="29" rx="3.5" stroke="#DEDEDE"/>
<path d="M17.8544 14.4997C17.8544 15.1248 17.6061 15.7244 17.164 16.1664C16.722 16.6085 16.1224 16.8568 15.4973 16.8568C14.8721 16.8568 14.2726 16.6085 13.8305 16.1664C13.3885 15.7244 13.1401 15.1248 13.1401 14.4997C13.1401 13.8745 13.3885 13.275 13.8305 12.8329C14.2726 12.3909 14.8721 12.1425 15.4973 12.1425C16.1224 12.1425 16.722 12.3909 17.164 12.8329C17.6061 13.275 17.8544 13.8745 17.8544 14.4997V14.4997Z" stroke="black" stroke-width="1.5" stroke-linecap="round" stroke-linejoin="round"/>
<path d="M8 14.5C9.001 11.3124 11.9796 9 15.4973 9C19.0157 9 21.9936 11.3124 22.9946 14.5C21.9936 17.6876 19.0157 20 15.4973 20C11.9796 20 9.001 17.6876 8 14.5Z" stroke="black" stroke-width="1.5" stroke-linecap="round" stroke-linejoin="round"/>
</svg>
